# xmcd
#
# Track frame offsets: 
#        187
#        6445
#        29480
#        55182
#        86642
#        104847
#        125187
#        140865
#        160380
#        179947
#
# Disc length: 2543 seconds
#
# Revision: 4
# Processed by: cddbd v1.4PL0 Copyright (c) Steve Scherf et al.
# Submitted via: ExactAudioCopy v0.90b4
#
DISCID=a009ed0a
DTITLE=Чиж and Co - Перекресток
DYEAR=1994
DGENRE=Rock
TTITLE0=INTRO
TTITLE1=Дополнительный 38-й
TTITLE2=Сен Симилья
TTITLE3=Перекресток
TTITLE4=Я не такой
TTITLE5=Если
TTITLE6=Поход
TTITLE7=Мне не хватает свободы
TTITLE8=Доброе утро
TTITLE9=Coda
EXTD=YEAR: 1994
EXTT0=
EXTT1=
EXTT2=
EXTT3=
EXTT4=
EXTT5=
EXTT6=
EXTT7=
EXTT8=
EXTT9=
PLAYORDER=
